<svg xmlns="http://www.w3.org/2000/svg" width="1388.161" height="924.286" viewBox="0 0 1388.161 924.286"><defs><style>.a{fill:#f99184;fill-rule:evenodd;}</style></defs><path class="a" d="M694.586,1136.54c17.234,2.183,16.319,1.484,33.15-.213l.159-11.56c-16.517-10.86-11.9-3.773-22.771-4.165-2.878-3.322-2-7.527-2.363-15.281l-6.258-.171-6.244,9.1c-2,6.212,3.634,4.026,4.324,22.293Zm553.474,710c2.675,1.419,4.014,2.624,8.01,5.37.47,18.362-4.163,9.11-5.318,20.87,17.826,12.214,50.216-3.6,62.593,14.326,5.945,8.616,5.186,4.293,10.082,9.537,13.4,14.358-2.773,2.843,24.646,23.218,3.02,2.245,2.373,7.237,11.452.88,2.785-1.948.515-1.244,5.241-3.543,4.554-2.217,9.125-2.182,15.534-1.954,2.791,3.452,3.954,4.276,5.485,9.675l3.5,12.639c4.874-6.756,7.289-27.276-.936-37.7-3.629-4.6-4.36-5.018-6.54-9.59,5.37-14.05,25.664-12.627,34.713-5.462l6.534,5.458c7.02,3.414.085-2.532,17.155-11.468,11.8-6.178,26.493,2.185,23.13-19.907-1.781-11.682,1.744,6.186-.714-3-1.786-6.688-5.986-7.913-9.483-10.073.284-.041.541-.084.741-.127-1.135-3.128-3.811-2.872-2.946-8.03.607-3.624,3.016-3.531,2.808-8.553a14.694,14.694,0,0,0-5.377-2.717c1.13-6.941,1.956-3.409-2.8-8.111-7.492,2.346-6.693,5.042-6.313,9.643a13.5,13.5,0,0,1-2.356,1.185c-.582,7.315-.723,7.865-3.81,9.326-1.86-2.3-2.2-5.369-3.092-8.527-.829-2.951-1.673-5.336-1.4-8.287,1.1-11.906,10.511-6.233,10.694-6.173,2.916-4.213,1.035-.3,1.41-4.416.51-5.6.834-1.468,4.99-9.626a29.276,29.276,0,0,1,1.316-2.629,7.343,7.343,0,0,1,1.484-2.1c10.24-.308,3,6.968,15.14-1.651,2.816-2-.416-1.533,4.817-1.683,2.025-.057,3.514,1.086,3.516-1.669,0-3.876-.319-1.1-.986-2.133-5.137-7.988-2.138-8.812,5.746-8.817,4.278-5.916,1.807-11.222,6.215-14.6,3.675-2.815,3.593-1.748,8.479-2.369,2.3-.293,5.958-1.333,8.5-1.656.064-3.931.959-10.06-.856-13.186-1.491-2.566-5.334-5.081-6.538-7.812-.718-3.507,2.319-4.227,3.261-10.3-1.11-.994.563-.121-2.246-1.691a7.005,7.005,0,0,0-2.667-1.051,16.916,16.916,0,0,0-5.4-.536c-3.38,4.464-3.088,6.507-3.58,13.328-2.941,1.041-2.291,1.461-5.483,2.178-3.855-2.425-3.338-1.58-4.311-7.113-2.173-12.366-2.11-5.667-10.9-15.648-.38-.432-1.637-1.673-2.117-2.195-8.676,2.448-3.295,8.61-10.587,9.212-1.495-2.272-2.045-5.112-.14-12.339,1.13-4.28.566-8.124,1.042-13.342,14.021-1.86,12.554,1.975,17.139-4.548,4.732-6.733,7.867-2.747,10.619-10.271,1.231-3.366.106-2.031,3.14-4.674,5.245-4.571,2.758-4.084,3.654-10.26.877-6.051.549-.5,1.725-5.044,1.608-6.217-1.669-4.2-1.714-11.778-.1-16.508-2.337-10.108-7.868-19.726,1.076-4.822.669-1.12,3.233-5.43,4.012-6.739,1.777-7.745,1.345-12.37-.543-5.819.178-4.074.556-5.314,1.023-3.354,4.151-3.441,7.058-3.893,11.539-1.794,9.25-2.369,10.561-11.94,1.745-12.751-.216-8.179-1.061-13.616-1.009-6.489,1.043-7.063-2.67-12.449-4.678-6.786-9.78-10.75-.237-20.919.216-.23,1.617-1.7,1.9-1.921,2-1.532.142-.151,2.531-1.411,7.4-3.908.288-5.507,5.822-13.058l2-2.79c6.384-1.2,8.237-.108,13.421-3.549.751-18.591-4.45-11.913-6.708-20.542,2.877-4.659,4.393-4.121,5.411-7.114,1.591-4.69-2.138-4.8-3.276-8.8,3.391-1.988,10.051-3.034,15.082-1.56,2.331.682,6.725,6.118,8.923,8.067,8.2,7.275,3.4,4.962,13.775,11.83,3.8,2.518,1.622,2.636,4.462,3.713,4.715-1.48,5.19-4.335,11.665-4.312,7.3,8.587,2.768,10.757,7.585,12.85,2.816-2.583,2.271-8.61,3.109-13.434,1.657-9.534-1.459-6.083-1.13-15.13,9.78.492,2.632,13.964,18.234,11.536,3.553-5.57.976-12.323,7.984-14.152,10.62-2.771,3.028,3.555,18-6.15l2.155,2.807c1.485,1.381,1.447,1.331,3.62,1.916,5.536-5.3-.572-8.726,9.464-15.77.233-5.707-2.879-10.594-3.244-15.93,2.533-3.635,5.653-2.616,7.948,1.2,2.238,3.717.488,8.452,5.27,10.152,3.866-4.752.246-8.756,6.073-12.714,4.9-3.334,11.254-1.771,14.293-4.8,1.964-1.607,1.411,1.149,2.664-7.854a14.813,14.813,0,0,1,3.342-7.863c5.186-.724,3.6.574,7.941-1.533,6.652-3.232,7.885-4.9,13.727,5.375l2.785,3.462c3.187-1.932,2.951-6.318,7.7-5.667,3.155.43,13.32,12.651,19.252,13.046,5.6.375,5.262-1.628,9.637-2.057,5.026,4.436,3.723,7.563,7.686,11.164,9.618-1.044,8.414-10.62,10.907-20.311,1.038-4.036-.1-6.446,1.737-8.8,2.444,5.836-.707,8.3,6.607,11.41a11.761,11.761,0,0,0,8.419-7.253c.525.179,1.1.384,1.751.623,7.935,2.941,7.956-4.01,9.143-13.6.275-2.223,7.325-2.259,7.109-7.425.918-10.2,14.685-10.78,12.313-16.2-.474-2.9,6.74-11.574,1.5-15.123-3.627-8.5-.359-9.3.319-14.921.438-3.632-.614-5.292.763-8.609.955-2.3,2.093-2.488,2.931-5.288-3.234-2.062-7.857-3.186-10.693-5.576-.154-5.072-.931-2.8,1.832-4.918,3.974-3.045,10.639-2.124,14.787-3.7a12.772,12.772,0,0,0,6.378-5.75c.808-1.7.643-2.213,1.848-3.849.969-1.316,1.322-1,2.75-2.817l-1.858-12.013c9.637-.791,13.7,8.067,13.049-8.764l-8.022-6.1c-4.923-3.2-5.051-1.3-11.2-1.113,1.49-3.885,2.965-1.088,2.575-10.236-4.872-3.137-8.357-5.93-10.12-11.7-2.412-7.89-7.766-4.807-9.616-11.482,2.472-4.023,6.339-4.061,9.8-7.555,3.276-3.3,5.552-6.416,5.419-11.348a17.45,17.45,0,0,0-5.177-2.319c-9.493-3.326-8.79-.571-8.677-10.659.047-4.308.062-6.168-1.551-8.386-.049-.035-2.746.778-3.3-5.518-.334-3.747,3.129-19.468,5.637-23.313,3.669-5.622,3.358-6.192,6.868-8.376,2.424-1.51,2.83-1.116,4.845-2.338.731-8.186-2.33-7.322-5.436-12.313l-3.323-7.059c-.1-.194-.2-.454-.307-.64l-1.672-2.1c-1.464-1.378-2.825-2.653-4.413-4.118-2.557-2.362-7.982-2.755-7.691-9.926.237-5.808,1.475-1.638,1.968-6.586l-8.235-3.627c-3.33-1.853-4.992-3.12-9.914-3.506-.067-.565-.135-1.053-.2-1.486V1131.5a20.553,20.553,0,0,1-1.387-5.812c.182-.2.67-.114,1.285-2.765-.552-.325-.991-.573-1.351-.77a14.736,14.736,0,0,0-2.837-2.979c-.669-1.155-1.778-2.979-3.831-5.986a32.667,32.667,0,0,0-4.443.129c-3.56-.818-6.277,1.7-12.181,2.065-2.288-3.616-2.528-3.51-4.11-8.159-1.2-3.526-9.329-11.023-12.838-11.852s-5.419,1.621-10.388,1.709c.021-6.914,1.64-5.556,2-10.428-4.171-1.793-10.955-3.039-14.229.173-4.33,4.246-2.424,4.473-8.842,8.056-3.763-3.878-10.364-7.152-19.267-5.808-7.714,1.165-7.081,7.55-18.257,3.111-9.2-3.654-3.775-6.556-19.332-5.906-4.979.209-6.332.936-8.279,4.417-1.661,2.969-.134,1.245-2.607,4.028-6.839,7.7,2.563,1.293,1.048,14.121-3.667-.108-7.143-3.737-10.309-5.471-4.232,1.236-1.557,1.6-5.521,3.259-5.57,2.33-9.813.493-5.637-5.49,1.669-2.391,1.782-1.952,2.66-5.13l-1.771-1.286c-3.854-2.733-10.115-5.164-14.212-1.939-7.412,5.836-.438,11.83-18.358-4.732-2.228-2.059-3.3-4.388-6.327-4.632-3.062-.247-5.344,2.084-9.177-.866s-2.117-7.5-10.491-12.211c-7.552-4.253-11.819-1.281-19.788-1.431.615-3.2,4.58-8.726,1.823-11.292-3.163-1.426-10.34-1.378-13.047.278-1.289.788-5.649,7.193-6.337,8.9-1.275,3.17,4.262,15.368,1.357,24.654-4.2-.542-5.467-2.89-6.364-7.162-1.019-4.866-.367-6.666-5.334-7.114-4.064,10.478-.875,15.357-17.616,12.478-13.791-2.372-17.017,4.948-25.046,6.684-2.912-4.992-4.78-6.322-11.876-8.124-9.084-2.306-2.6-5.3-15.711-4.315.306-3.755.985-3,.875-7.492-10.292-5.173-16,1.5-21.373-.521-4.526-1.7-4.052-3.688-9.964-1.145-3.681,1.582-4.434,3.428-9.477,2.366l-22.259-10.444c-2.149-1.24-2.077-.874-4.163-1.571-5.258-1.754-3.454-2.518-5.787-6.514-2.089-.981-8.195-2.432-11.35-1.7-4.134.962-2.34,3.454-7.9,4.763-5.792-1.657-2.894-4.931-11.352-3.805-4.424.589-6.487,2.6-11.742,2.846-8.334.389-18.237-7.28-23.107-6.579-9.63,1.388-4.493,20.227-28.05,10.212,1.656-2.669,8.837-4.372,12.548-6.8.26-7.151,1.29-10.2-3.229-13.528l-9.181-7.775c-3.566-1.154-10.273,5.294-11.17.472-.824-4.443-.31,3.447-.186-1.395.082-3.232,2.3-4.17,2.587-7.538-6.11-2.9-11.8-4.926-16.083,1.894l-2.029,2.735c-5.89,7.506.333,5.581-.1,14.913-10.9.819-9.977-6.251-19,4.895l-3.25,4.369c-.133.147-.332.345-.47.485-.182.182-1.07.967-1.515,1.309-3.633,2.8-5.067,1.94-9.761,3.658-7.556,2.763-8.829,1.687-19.8,5.934-2.4.929-2.809.592-5.388,1.356-3.612,1.068-7.216,2.172-10.753.2l-1.731-1.091c-3.561-1.939-6.578-3.875-11.065-4.161-2.326,3.09-3.012,5.723-5.775,9.094-5.858-.15-5.444-1.333-6.991-6.1-1.422-4.375-2.642-2.956-3.379-8.728-.878-6.864-.865-4.611-5.505-7.94-2.9-2.086-3.633-4.057-7.225-5.066-1.588-.025-14.442,7.816-9.681-3.773,1.167-2.84,1.757-1.7,1.757-5.658a37.922,37.922,0,0,0-6.873-1.484c-7.1-.717-7.057,3.428-9.63,6.751-.739.955-3.369,3.162-4.364,4.2.839,3.292,1.531,1.877,2.547,5.827.671,2.608.4,4.468.235,7.155-4.841-1.775-3.512-7.427-11.243-6.356-2.991.415-9.683,4-12.952,5.26-8.8,3.39-9.562.2-15.331-.553-3.726-.486-5.45.511-8.837-.881-2.351-.967-2.523-2.076-5.387-2.935-2.171,3.112-3.4,7.59-5.905,10.31-5.216.067-2.894.861-5.026-1.863-3.066-3.914-2.011-10.381-3.565-14.442a12.668,12.668,0,0,0-5.807-6.3c-1.736-.814-2.264-.662-3.927-1.86-1.337-.963-1-1.3-2.85-2.718l-12.378,1.61c-.656-9.385,8.514-13.2-8.8-12.834l-6.4,7.7c-3.366,4.736-1.421,4.891-1.326,10.876-3.969-1.512-1.07-2.9-10.479-2.671-3.3,4.687-6.231,8.032-12.189,9.653-8.15,2.218-5.068,7.475-11.96,9.166-4.094-2.47-4.073-6.232-7.606-9.656-3.342-3.239-6.506-5.5-11.576-5.455a16.526,16.526,0,0,0-2.468,5l-1.891,4.856c-.87,5.064-3.755,3.552-9.206,3.408-4.428-.116-6.339-.162-8.646,1.372-4.852-.128-9.4.289-13.212-1.059-7.107-2.517-6.792-2.075-8.349-5.225,7.675-8.159,29.127,3.824,29.411-11.183.2-10.527-1.492-8.071-7.6-12.464-2.708-1.951-2.166-3.238-6.044-3.6-3.531-.333-5.3,1.122-9.779,1.245.074-6.218,2.663-6.756,1.535-11.813-8.392-4.144-11.529-.234-15.223.95-1.952,9.967-2.131,4.379-5.408,10.655,1.254,2.865,8.364,8.991,2.906,16.717-2.788-.768-2.207-1.108-4-3.452-5.818-7.615-9.081-3.891-14.071,1-2.994,2.932-4.38,5.159-9.782,5.327-2.026.063-4.937-.3-6.842-.118-7.209.7-.327,3-12.468,2.731a33.972,33.972,0,0,0-3.836,0c-5.717.633-5.7,3.332-6.733,5.09-.428.73-2.676,4.277-2.8,4.847-.577,2.571,4.838,11.539-3.991,11.817-3.742.119-3.843-2.442-7.662-3.794-8.353,5.259-3.136,13.1-8.24,16.26-8.2,5.07-13.941-3.051-13.064,11.925.444,7.59,9.553,2.431,10.01,11.235-5.233,1.719-7.919,2.99-13,4.448l-.118,11.717c22.233,7.476,14.326,7.515,13.209,16.6,4.387,5.2,6.809,4.766,17.187,6.29,1.759,17.316-5.193,10.072-7.965,21.383-1.09,4.444-.792,8.258-3.052,12.255-2.781,4.917-4.933,2.756-9.36,6.884-.74,6.156-1.055,9.716,2.438,13.533,5.111,5.583.1,16.28-1.294,17.61-3.443,3.283-9.727.759-7.561,17.177,6.308,3.714,9.536-.24,13.849,6.919-3.581,10.6-13.87,1-16.824-1.2-5.455-4.052-7.132.324-14.851.388-.105-5.633,1.274-6.055,2.1-10.425-5.326-3.251-9.646-1.476-15.181-.645-.941,7.442-.682,3.013-2.616,6.959-2.87,5.853.8,1.705,2.489,14.885l1.452,7.31c.441,1.225,6.82,2.6,8.407,3.027,2.65.714,22.514,2.747,27.314-2.754,3.26-3.738-.549-1.812,3.115-3.469,7.335,4.541,1.185,16.353-14.411,17.422-6.028.412-14.715-.894-20.265.087-5.988,1.059-4.9,7.41-11.524,8.117-8.175-1.108,3.906-12.092-6.913-23.592-1.571-1.671.578-.254-1.75-1.557l-5.448,6.317c-.158.116-.387.289-.548.4l-1.094.765c-2.743,1.674-8.639,2.72-12.642,2.747l-.035,12.029c2.052.627,4.757,1.432,6.809,2.067,14.063,4.355,5.649,7.29,5,15.651,7.775,1.723,7.812,2.667,17.594,2.728,7.784.051,12.282-.256,15.46,5.326,2.177,3.822,6.43,5.867,10.013,9.975,3.668,4.2,7.055,6.175,11.09,9.791,5.4,2.4,11.89-6.06,16.98,4.055,1.637,3.257.9,4.153,4.2,5.419,4.678-5.437,2.175-17.236,15.622-11.491,4.022,1.718,15.27,11.26,15.171,15.163-.028,1.143-11.343,10.177-4.8,18.989,2.256,2.785,10.691,4.02,14.106,7.227a11.155,11.155,0,0,1-1.537,4.909l-2.428,5.973,3.73.9c2.527.275,5.093,1.022,7.371,1.259,3.347.345,7.145.093,10.567.207,12.072.4,9.864,2.606,19.689,10.629,2.442,1.994,3.068,3.062,5.131,5.311,1.827,1.992,9.19,7.361,11.711,9.07,5.383-1.1,5.043-3.92,11.889-3.743,5.876,5.7,3.915,9.325,7.36,13.239,4.594-2.653.449-12.286,6.739-17.813,5.2.339,5.9,4.162,11.708,6.491,6.729,2.7,7.068-2.09,13.147-2.442,2.51,3.054,5.007,7.924,7.617,12.127,5.792.061,6.814-2.11,12.636-1.029-1.333,5.881-7.548,1.978-5.38,14.31,2.756,15.67-7.823,5.853-8.276,18.3-.415,11.426,7.3,7.834,14.763,13.08.416,7.982-5.443,6.9-3.185,13.318.623,1.77,2.773,4.589,3.411,6.167,1.534,3.789.04,4.506,2.542,6.308,1.071,1.564.3.57,1.534,1.792,1.549,1.538,4.675,3.337,4.651,6.163-2.22,7.409-9.282,5.841-15.3,9.719l-.312,10.877c2.355,2.1,3.048,2.766,6.615,3.543,5.54,1.209,4.384,1.208,8.232,3.408.041,8.018-3.361,6.787-3.775,11.777,12.656,6,24.429,1.383,31.072,4.7,3.278,1.638,11.953,12.7,19.343,17.688,13.732,9.27,6.057,4.117,15.444,4.422.318.011.6.07.889.1s.661.144.905.178c4.239.593,3.539,2.559,4.457,4.454,2.977,6.141,5.779,3.5,5.5,19.08-.221,12.471-10.98,10.709-16.757,13.786-1.91,1.018-.789.392-1.783,1.13l.14,10.034c17.256,1.388,9.469,7.934,10.469,18.991,2.509,1.549,11.53,3.71,14.446,5.618.3,5.426-1.682,6.893-.932,11.159.745,4.219,3.642,3.664,5.33,7.567.039.24-18.6,36.762,7.5,55.8,4.6,3.354,15.659,5.439,16.528,8.4l.565,2.307c.076,2.279-.1,1.6-.67,3.048-1.051,2.683-1.288,1.256-2.129,4.413,6.212,5.158,16.151,3.728,19,6.734,4.089,4.319.512,3.188,6.918,6.035,3.12,1.385,6.131,2.336,8.752,3.843,6.688,3.848,6.038,12.763,2.1,18.353-5.447,7.739-9.484,4.388-16.255,8.566-2.522,18.639,6.356,10.722,14.092,18.263.449,6.333-2.384,5.065-1.864,12.171,6.893,3.758,15.705,3.438,24.246,5.033,12.288,2.294,10.156,5.713,14.935,13.729,2.725,4.569,17.267,9.27,19.293,9.3,10.2.135,5.734-5.692,16.376,9.923,9.7,1.1,10-1.07,16.737,4.763,3.895,3.375,6.749,5.828,9.251,9.691,4.99.015,10.047.306,15.167.58ZM798.809,1178.323l9.536.05c1.971-5.839,1.54-6.186,2.583-12.954.623-4.047.954-1.78,1.749-5.75a20.362,20.362,0,0,0,.3-3.732c-.457-7.286-4.6-7.161-10.623-8.482-7.819-1.717-2.99-3.076-9.852-4.178-1.212,2.408-3.428,5.178-3.719,8.058l5.438,20.261c.1.186.238.425.345.607l4.244,6.119Zm-7.434,41.54c4.55-7.226,3.519-3.708,5.923-7.443l1.973-3.876c.09-.23.225-.46.3-.7.627-1.989,1.028-1.953-.268-4.419-.641-1.216-1.458-1.348-2.589-3.224-2.121-3.521-.913-6.656-2.731-9.722-4.189-1.7-12.5-3.495-16.269-.831l-3.989,4.77c-4.4,6.228-5.371,5.241-9.857,7.971-5.929,3.608-2.494,2.329-5.423,7.211l-8.158,7.881c-.126.123-.445.747-.537.578s-.395.374-.534.6c.219.177.517.375.691.486,11,6.964,13.191,2.873,17.47,2.034,11.839-2.324,16.463,1.658,20.829,2.509l3.168-3.826Zm-257.149-76.91c-4.717,16.65-2.822,13.828-23.223,14.344-6.93.176-11.3-.434-17.353-.92-9.6-.772-10.664.038-10.762-8.1,6.008,2.51,29.343.773,37.028-.567,2.955-9.038,1.665-15.154-5.492-19.332-4.017-2.344-4.566-3.584-9.009-5.325-5.18-2.029-3-3.658-5.222-8.112-14.209-2.709-13.052-3.9-20.044,5.345-1.952,2.58-2.753,2.458-4.535,4.749,2.258,4.19,1,1.118,3.3,4.105,3.327,4.326,4.725,14.238,1.293,18.687-4.991-.77-1.264.432-4.013-2.073-3.458-3.148-4.026-7.437-5.307-11.677-2.636,1.951-3.128,3.656-4.058,7.173-2.313,8.746-11.092,7.251-19.334,10.954l.106,11.183c6.382,4.481,11.314,1.534,15.894,7.528a17.389,17.389,0,0,1-1.863,5.324c-1.991,3.525-1.333.391-2.626,4.038,4.949,5.292,11.829,4.68,21.215,4.754,17.375.133,9.79,3.082,17.142,8.479,4.409,3.237,3.4,2.715,6.788,6.556,3.426,3.889,2.5,2.712,6.732,5.563,11.214,7.56,7.844-.783,19.378.3,1.714,2.38,1.543,2.695,2.7,5.286,1.844,4.122-.2,2.312,4.037,4.15.99-1.439-.015.739,1.119-2.286l.966-4.78c1.533-15.788-5.062-13.628-5.876-18.662,4.854-4.421,12.829-2.876,13.143-2.813.213.043.643.505.793.27s.526.172.771.3c4.153,2.924,2.974,5.328,3.256,11.605,2.187,1.3,2.955,2.263,6.041,2.054,1.8-4.046,2.159-10.948,5.628-13.458,4.4-2.866,11.316-.162,14.135,3.455,4.278,5.488,1.658,7.138-.13,12.923-1.811,5.861-.856,10.411-6.086,12.909-4.671,2.231-8.7.9-13.987,4.147-3.28,18.563,4.533,12.918,15.082,18.93l-2.271,6.662c-6.077,9.472,10.62,8.134,18.432,8.2,15.626.132,10.459.486,18.326,7.811,3.043,2.834,3.931,3.155,6.533,6.91a30.011,30.011,0,0,0,2.771,3.751c2.516,2.707-3.7-2.666,1.374,1.3l1.083.737c.169.106.424.237.6.34l1.252.658c2.007,1.165-.256-.27,1.248.721,2.08,1.371,3.125,3.1,5.691,3.57,6.794,1.229,2.154-1.759,10.208-2.975l3.919,6.649c1.331,1.829,2.6,3.7,3.786,5.68,5.349-1.521,7.657-21.143,3.58-25.163l-1.571-1.215c-3.076-2.465-3.019-1.113-3.184-5.859,3.466-1.546,8.09-2.053,13.055-1.908,3.007,6.01,3.784,3.468,4.126,12.935l5.236.551c2.671-6.915.177-8.155,5.933-13.031,4.735-4.008,8.314-1.752,14.543-4.478.225-9.938,1-11.482-5.193-16.353-5.763-4.532-1.161-7.664-.229-13.64-12.661-.853-9.839-2.849-10.9,10.342-2.037,1.481-3.207,2.3-6.994,2.293-5.266-7.673-5.568-22.283-19.34-22.3-2.331,2.994-1.976,7.191-4.133,10.875-3.1,5.307-20.451,4.647-26.233,3.909-6.09-.781-19.128,1.136-20.909-5.47,2.987-4.321,12.329-3.1,17.565-3.07,5.573.035,14.37.3,18.006-1.947,4.149-2.559,3.272-10.567.575-13.987-2.622-3.326-6.348-5.654-9.386-8.659-.193-.191-.736-.755-.942-.931-2.163-1.829-4.748-1.81-6.525-4.043-2.695-3.391.8-2.7-4.244-5.088-12.953-6.142-20.471,9.149-28.289-8.31-1.7-3.808-1.672-7.6-4.554-10.281-.219-.205-1.072-.924-1.644-1.463-.136-.128-.466-.226-.565-.591s-.389-.4-.572-.615c1.708-4.569,4.17-5.607,3.967-10.74-2.537-1.458-3.528-2.212-8.183-2.151-4.582.059-4.137.9-7.121,2.593-1.038,8.2,1.988,11.7-6.65,12.4-2.487-5.177-2.166-10.528-6.15-14.6-2.27-2.316-.788-.577-3.369-2.327-3.7-2.506-4.545-5.135-10.271-4.713Zm127.632-1.24c-.316.806-1.023,3.02-1.12,3.167-2.942,4.5,2.655-1.421-1.026.929l-1.717.759c-.106,10.094-.674,6.222,7.743,9.648,4.6,1.872,4.458,2.147,7.812,4.453.252,9.834-2.23,4.88-2.848,11.177,9.548,6.54,26.894-1.93,33.521,7.673,3.184,4.615,2.777,2.3,5.4,5.109,7.177,7.689-1.484,1.523,13.2,12.435,1.617,1.2,1.272,3.875,6.133.472,1.492-1.043.276-.666,2.807-1.9,2.438-1.188,4.888-1.169,8.32-1.047,1.495,1.848,2.118,2.291,2.938,5.182l1.874,6.769c2.611-3.618,3.9-14.609-.5-20.193-1.944-2.465-2.335-2.687-3.5-5.135,2.876-7.525,13.744-6.763,18.59-2.925l3.5,2.923c3.759,1.828.045-1.356,9.188-6.141,6.321-3.309,14.189,1.17,12.387-10.661-.954-6.257.934,3.313-.381-1.606-1.973-7.387-9.441-2.332-7.771-14.876.659-4.945,1.373-2.561-1.362-5.266-6.071,1.9-1.975,4.232-3.876,9.878-1.135,3.37.306,1.068-7.018,6-9.312-6.244-2.834-14.819-11.617-19.353-1.678-.866-5.561-2.71-7.635-2.981-3.076,3.269-2.159,5.673-5.282,9.905-.935,1.269-1.5,1.742-2.426,3.2-10.64.354-19,1.012-29.835.835-21.091-.342-12.006,10.073-22.966,3.852a4.83,4.83,0,0,1,.363-2.34c.056-.2.141-.493.211-.7s.177-.46.256-.668l2.817-6.455c-7.915-8.454-4.558-6.886-9.55-13.318l-2.488,4.317a19.493,19.493,0,0,1-3.345,3.272c-3.8,3.567-3.483,3.442-10.791,3.61Z" transform="translate(-447.49 -1013.271)"/></svg>